<svg width="28" height="28" viewBox="0 0 28 28" fill="none" xmlns="http://www.w3.org/2000/svg">
<path d="M20.582 0.0839844C20.6042 0.0851931 20.6263 0.0877876 20.6484 0.0898438C20.6877 0.09355 20.7268 0.0981404 20.7656 0.104492C20.9305 0.131179 21.0919 0.180517 21.2441 0.253906L22.54 0.87793L27.0049 3.02539C27.3023 3.16734 27.5535 3.39039 27.7295 3.66895C27.9056 3.94763 27.9996 4.27096 28 4.60059V23.4004C28.0001 23.7298 27.9067 24.0523 27.7314 24.3311C27.5561 24.6099 27.3057 24.8339 27.0088 24.9766L21.2441 27.7471C20.9184 27.9036 20.5516 27.955 20.1953 27.8945C19.8392 27.8339 19.5106 27.6645 19.2549 27.4092L8.21484 17.3438L3.40723 20.9902C3.19044 21.1549 2.92239 21.2386 2.65039 21.2266C2.37854 21.2144 2.11926 21.1079 1.91797 20.9248L0.376953 19.5244C0.349953 19.5004 0.324805 19.4743 0.299805 19.4473C0.0921117 19.2183 -0.0159225 18.9162 -0.000976562 18.6074C0.0140207 18.2986 0.151028 18.0086 0.379883 17.8008L4.54785 14L0.379883 10.2002C0.150974 9.99242 0.0140725 9.70231 -0.000976562 9.39355C-0.0159732 9.08481 0.0921814 8.78269 0.299805 8.55371C0.324768 8.52675 0.349999 8.50053 0.376953 8.47656L1.91797 7.07617C2.11953 6.89219 2.37971 6.78453 2.65234 6.77246C2.92489 6.7605 3.19323 6.8453 3.41016 7.01074L8.21582 10.6553L19.2549 0.592773C19.2732 0.574408 19.2924 0.556534 19.3115 0.539062C19.2911 0.556522 19.27 0.573663 19.251 0.592773C19.5066 0.33713 19.8351 0.167186 20.1914 0.106445C20.3211 0.0843434 20.4521 0.0767042 20.582 0.0839844ZM12.625 13.999L21 20.3506V7.64844L12.625 13.999Z" fill="#1F9CF0"/>
</svg>
