<svg width="10" height="10" viewBox="0 0 10 10" fill="none" xmlns="http://www.w3.org/2000/svg">
    <path
        d="M5.884 4.99997L9.817 1.06681C10.061 0.822738 10.061 0.42696 9.817 0.183053C9.573 -0.0610176 9.177 -0.0610176 8.933 0.183053L5 4.11603L1.067 0.183053C0.823 -0.0610176 0.427 -0.0610176 0.183 0.183053C-0.061 0.42711 -0.061 0.822894 0.183 1.06681L4.1165 4.99997L0.183 8.93306C-0.061 9.17718 -0.061 9.57294 0.183 9.81681C0.305 9.93888 0.465 10 0.625 10C0.785 10 0.945 9.93888 1.067 9.81681L5 5.88385L8.933 9.81681C9.055 9.93888 9.215 10 9.375 10C9.535 10 9.695 9.93888 9.817 9.81681C10.061 9.57281 10.061 9.17706 9.817 8.93306L5.884 4.99997Z"
        fill="currentColor" />
</svg>