<svg width="11" height="11" viewBox="0 0 11 11" fill="none" xmlns="http://www.w3.org/2000/svg">
    <path
        d="M8.93434 0.1875H2.44066C1.47387 0.1875 0.6875 0.973866 0.6875 1.94068V8.43434C0.6875 9.40112 1.47387 10.1875 2.44066 10.1875H8.93434C9.90113 10.1875 10.6875 9.40112 10.6875 8.43434V1.94068C10.6875 0.973866 9.90113 0.1875 8.93434 0.1875ZM9.77841 8.43434C9.77841 8.89979 9.39979 9.27841 8.93434 9.27841H2.44066C1.97521 9.27841 1.59659 8.89979 1.59659 8.43434V1.94068C1.59659 1.47523 1.97521 1.09659 2.44066 1.09659H8.93434C9.39979 1.09659 9.77841 1.47523 9.77841 1.94068V8.43434Z"
        fill="currentColor" />
</svg>