<svg width="640" height="480" viewBox="0 0 640 480" fill="none" xmlns="http://www.w3.org/2000/svg">
<g clip-path="url(#clip0_1809_18)">
<path d="M0 0H640V480H0V0Z" fill="#EE1C25"/>
<path d="M69.8 257L138.5 51L207.2 257L24 131.111H253L69.8 257Z" fill="#FFFF00"/>
<path d="M325.626 58.941L246.073 76.5701L299.138 14.7353L293.933 97.9569L249.787 24.2807L325.626 58.941Z" fill="#FFFF00"/>
<path d="M381.454 131.803L301.291 117.199L374.183 80.7844L337.11 155.473L324.993 70.4424L381.454 131.803Z" fill="#FFFF00"/>
<path d="M376.146 232.252L308.91 186.223L390.316 182.704L326.004 235.779L349.621 153.199L376.146 232.252Z" fill="#FFFF00"/>
<path d="M310.812 301.265L266.571 232.839L343.019 261.035L263.199 285.152L316.878 218.102L310.812 301.265Z" fill="#FFFF00"/>
</g>
<defs>
<clipPath id="clip0_1809_18">
<rect width="640" height="480" fill="white"/>
</clipPath>
</defs>
</svg>
