<svg width="640" height="481" viewBox="0 0 640 481" fill="none" xmlns="http://www.w3.org/2000/svg">
<g clip-path="url(#clip0_1812_239)">
<mask id="mask0_1812_239" style="mask-type:luminance" maskUnits="userSpaceOnUse" x="0" y="0" width="640" height="481">
<path d="M640 0H0V481H640V0Z" fill="white"/>
</mask>
<g mask="url(#mask0_1812_239)">
<path d="M640 0H0V481H640V0Z" fill="white"/>
<path d="M640 0H0V37H640V0Z" fill="#BF0A30"/>
<path d="M640 74H0V111H640V74Z" fill="#BF0A30"/>
<path d="M640 148H0V185H640V148Z" fill="#BF0A30"/>
<path d="M640 222H0V259H640V222Z" fill="#BF0A30"/>
<path d="M640 296H0V333H640V296Z" fill="#BF0A30"/>
<path d="M640 370H0V407H640V370Z" fill="#BF0A30"/>
<path d="M640 444H0V481H640V444Z" fill="#BF0A30"/>
</g>
<path d="M639.5 0.5H0.5V480.5H639.5V0.5Z" stroke="white"/>
<path d="M0 0H372V263.563H0" fill="#002868"/>
<path d="M272.176 5.29565L286.283 48.7114L249.351 21.879H295.001L258.069 48.7114L272.176 5.29565Z" fill="white"/>
<path d="M272.176 58.0081L286.283 101.424L249.351 74.5914H295.001L258.069 101.424L272.176 58.0081Z" fill="white"/>
<path d="M272.176 110.721L286.283 154.136L249.351 127.304H295.001L258.069 154.136L272.176 110.721Z" fill="white"/>
<path d="M272.176 163.433L286.283 206.849L249.351 180.017H295.001L258.069 206.849L272.176 163.433Z" fill="white"/>
<path d="M272.176 216.146L286.283 259.561L249.351 232.729H295.001L258.069 259.561L272.176 216.146Z" fill="white"/>
<path d="M333.826 31.6519L347.933 75.0676L311.001 48.2352H356.651L319.719 75.0676L333.826 31.6519Z" fill="white"/>
<path d="M333.826 84.3644L347.933 127.78L311.001 100.948H356.651L319.719 127.78L333.826 84.3644Z" fill="white"/>
<path d="M333.826 137.077L347.933 180.493L311.001 153.66H356.651L319.719 180.493L333.826 137.077Z" fill="white"/>
<path d="M333.826 189.789L347.933 233.205L311.001 206.373H356.651L319.719 233.205L333.826 189.789Z" fill="white"/>
<path d="M37.825 5L51.9316 48.4157L15 21.5833H60.65L23.7184 48.4157L37.825 5Z" fill="white"/>
<path d="M37.825 57.7124L51.9316 101.128L15 74.2957H60.65L23.7184 101.128L37.825 57.7124Z" fill="white"/>
<path d="M37.825 110.425L51.9316 153.841L15 127.008H60.65L23.7184 153.841L37.825 110.425Z" fill="white"/>
<path d="M37.825 163.138L51.9316 206.553L15 179.721H60.65L23.7184 206.553L37.825 163.138Z" fill="white"/>
<path d="M37.825 215.85L51.9316 259.266L15 232.433H60.65L23.7184 259.266L37.825 215.85Z" fill="white"/>
<path d="M99.4749 31.3562L113.582 74.7719L76.6499 47.9395H122.3L85.3683 74.7719L99.4749 31.3562Z" fill="white"/>
<path d="M99.4749 84.0687L113.582 127.484L76.6499 100.652H122.3L85.3683 127.484L99.4749 84.0687Z" fill="white"/>
<path d="M99.4749 136.781L113.582 180.197L76.6499 153.365H122.3L85.3683 180.197L99.4749 136.781Z" fill="white"/>
<path d="M99.4749 189.494L113.582 232.91L76.6499 206.077H122.3L85.3683 232.91L99.4749 189.494Z" fill="white"/>
<path d="M154.825 5L168.932 48.4157L132 21.5833H177.65L140.718 48.4157L154.825 5Z" fill="white"/>
<path d="M154.825 57.7124L168.932 101.128L132 74.2957H177.65L140.718 101.128L154.825 57.7124Z" fill="white"/>
<path d="M154.825 110.425L168.932 153.841L132 127.008H177.65L140.718 153.841L154.825 110.425Z" fill="white"/>
<path d="M154.825 163.138L168.932 206.553L132 179.721H177.65L140.718 206.553L154.825 163.138Z" fill="white"/>
<path d="M154.825 215.85L168.932 259.266L132 232.433H177.65L140.718 259.266L154.825 215.85Z" fill="white"/>
<path d="M216.475 31.3562L230.582 74.7719L193.65 47.9395H239.3L202.368 74.7719L216.475 31.3562Z" fill="white"/>
<path d="M216.475 84.0687L230.582 127.484L193.65 100.652H239.3L202.368 127.484L216.475 84.0687Z" fill="white"/>
<path d="M216.475 136.781L230.582 180.197L193.65 153.365H239.3L202.368 180.197L216.475 136.781Z" fill="white"/>
<path d="M216.475 189.494L230.582 232.91L193.65 206.077H239.3L202.368 232.91L216.475 189.494Z" fill="white"/>
<path d="M272.176 5.29565L286.283 48.7114L249.351 21.879H295.001L258.069 48.7114L272.176 5.29565Z" fill="white"/>
<path d="M272.176 58.0081L286.283 101.424L249.351 74.5914H295.001L258.069 101.424L272.176 58.0081Z" fill="white"/>
<path d="M272.176 110.721L286.283 154.136L249.351 127.304H295.001L258.069 154.136L272.176 110.721Z" fill="white"/>
<path d="M272.176 163.433L286.283 206.849L249.351 180.017H295.001L258.069 206.849L272.176 163.433Z" fill="white"/>
<path d="M272.176 216.146L286.283 259.561L249.351 232.729H295.001L258.069 259.561L272.176 216.146Z" fill="white"/>
<path d="M333.826 31.6519L347.933 75.0676L311.001 48.2352H356.651L319.719 75.0676L333.826 31.6519Z" fill="white"/>
<path d="M333.826 84.3644L347.933 127.78L311.001 100.948H356.651L319.719 127.78L333.826 84.3644Z" fill="white"/>
<path d="M333.826 137.077L347.933 180.493L311.001 153.66H356.651L319.719 180.493L333.826 137.077Z" fill="white"/>
<path d="M333.826 189.789L347.933 233.205L311.001 206.373H356.651L319.719 233.205L333.826 189.789Z" fill="white"/>
</g>
<defs>
<clipPath id="clip0_1812_239">
<rect width="640" height="481" fill="white"/>
</clipPath>
</defs>
</svg>
