<svg width="24" height="24" viewBox="0 0 24 24" fill="none" xmlns="http://www.w3.org/2000/svg">
    <g>
        <path id="Vector"
            d="M12.196 11.7926C11.9453 11.5408 11.9464 11.1336 12.1985 10.8831C12.4505 10.6327 12.858 10.6338 13.1087 10.8856C14.7784 12.563 14.7761 15.2735 13.1038 16.9481L10.3132 19.7424C8.64852 21.4093 5.94922 21.4206 4.27063 19.7677C2.59352 18.1158 2.57421 15.4188 4.22708 13.7435L7.03782 10.8946C7.28738 10.6417 7.69491 10.6388 7.94806 10.8881C8.20121 11.1375 8.20413 11.5447 7.95457 11.7976L5.14382 14.6465C3.99006 15.8159 4.00354 17.6985 5.17393 18.8513C6.34867 20.008 8.23725 20.0001 9.40196 18.8339L12.1925 16.0396C13.3641 14.8665 13.3656 12.9677 12.196 11.7926ZM11.5999 12.186C11.8506 12.4378 11.8495 12.845 11.5975 13.0955C11.3454 13.346 10.9379 13.3449 10.6872 13.093C9.01726 11.4154 9.01769 8.70486 10.6882 7.02775L13.3769 4.32836C15.111 2.5873 17.9208 2.55341 19.6966 4.25214C19.7553 4.30829 19.8123 4.36611 19.8677 4.42554C21.4576 6.13269 21.3615 8.80447 19.6529 10.3931L16.7382 13.1033C16.478 13.3453 16.0707 13.3306 15.8285 13.0706C15.5864 12.8106 15.601 12.4037 15.8612 12.1617L18.776 9.45154C19.9641 8.34681 20.0309 6.4889 18.9253 5.30178C18.8868 5.26045 18.8471 5.22024 18.8063 5.1812C17.5371 3.96703 15.5288 3.99125 14.2893 5.23568L11.6006 7.93506C10.4298 9.11049 10.4295 11.0102 11.5999 12.186Z"
            fill="currentColor" />
    </g>
</svg>