<svg width="24" height="24" viewBox="0 0 24 24" fill="none" xmlns="http://www.w3.org/2000/svg">
    <path
        d="M11.8157 8.05263C11.5709 8.296 11.1752 8.29487 10.9318 8.0501C10.6884 7.80532 10.6895 7.40959 10.9343 7.16622L13.6525 4.4636C15.2794 2.84592 17.9079 2.84754 19.5329 4.46722C21.1507 6.07972 21.1549 8.69837 19.5424 10.3161C19.5381 10.3205 18.6147 11.2387 16.7723 13.0706C16.5275 13.314 16.1318 13.3128 15.8884 13.0681C15.645 12.8233 15.6461 12.4276 15.8909 12.1842L18.6479 9.44284C19.7822 8.30488 19.7793 6.47769 18.6504 5.35254C17.5129 4.21867 15.6728 4.21754 14.5338 5.35001L11.8157 8.05263ZM12.1833 15.9328C12.4275 15.6889 12.8233 15.6891 13.0672 15.9333C13.3111 16.1775 13.3109 16.5733 13.0667 16.8172L10.3492 19.5315C8.7233 21.1555 6.08902 21.1547 4.46409 19.5298C2.83934 17.9031 2.84089 15.2701 4.46582 13.6471L7.18332 10.9328C7.42754 10.6889 7.82327 10.6891 8.0672 10.9333C8.31114 11.1775 8.3109 11.5733 8.06668 11.8172L5.34918 14.5315C4.21269 15.6667 4.21161 17.5082 5.34677 18.6447C6.48495 19.7829 8.32818 19.7834 9.46582 18.6471L12.1833 15.9328ZM9.5 5.125C9.5 5.47018 9.22018 5.75 8.875 5.75C8.52982 5.75 8.25 5.47018 8.25 5.125V2.625C8.25 2.27982 8.52982 2 8.875 2C9.22018 2 9.5 2.27982 9.5 2.625V5.125ZM15.75 21.375C15.75 21.7202 15.4702 22 15.125 22C14.7798 22 14.5 21.7202 14.5 21.375V18.875C14.5 18.5298 14.7798 18.25 15.125 18.25C15.4702 18.25 15.75 18.5298 15.75 18.875V21.375ZM6.81694 5.93306C7.06102 6.17714 7.06102 6.57286 6.81694 6.81694C6.57286 7.06102 6.17714 7.06102 5.93306 6.81694L3.43306 4.31694C3.18898 4.07286 3.18898 3.67714 3.43306 3.43306C3.67714 3.18898 4.07286 3.18898 4.31694 3.43306L6.81694 5.93306ZM20.5669 19.6831C20.811 19.9271 20.811 20.3229 20.5669 20.5669C20.3229 20.811 19.9271 20.811 19.6831 20.5669L17.1831 18.0669C16.939 17.8229 16.939 17.4271 17.1831 17.1831C17.4271 16.939 17.8229 16.939 18.0669 17.1831L20.5669 19.6831ZM5.125 8.25C5.47018 8.25 5.75 8.52982 5.75 8.875C5.75 9.22018 5.47018 9.5 5.125 9.5H2.625C2.27982 9.5 2 9.22018 2 8.875C2 8.52982 2.27982 8.25 2.625 8.25H5.125ZM21.375 14.5C21.7202 14.5 22 14.7798 22 15.125C22 15.4702 21.7202 15.75 21.375 15.75H18.875C18.5298 15.75 18.25 15.4702 18.25 15.125C18.25 14.7798 18.5298 14.5 18.875 14.5H21.375Z"
        fill="currentColor" />
</svg>