<svg width="16" height="16" viewBox="0 0 16 16" fill="none" xmlns="http://www.w3.org/2000/svg">
<path d="M12.3393 3.1469C12.1435 2.95103 11.8281 2.95103 11.6322 3.1469L7.74311 7.036L3.85401 3.1469C3.65814 2.95103 3.34277 2.95103 3.1469 3.1469C2.95103 3.34277 2.95103 3.65814 3.1469 3.85401L7.036 7.74311L3.1469 11.6322C2.95103 11.8281 2.95103 12.1435 3.1469 12.3393C3.34277 12.5352 3.65814 12.5352 3.85401 12.3393L7.74311 8.45022L11.6322 12.3393C11.8281 12.5352 12.1435 12.5352 12.3393 12.3393C12.5352 12.1435 12.5352 11.8281 12.3393 11.6322L8.45022 7.74311L12.3393 3.85401C12.5352 3.65814 12.5352 3.34277 12.3393 3.1469Z" fill="black"/>
</svg>
